<svg width="170" height="41" viewBox="0 0 170 41" fill="none" xmlns="http://www.w3.org/2000/svg">
<path d="M31.6742 9.49952C31.3064 9.13172 30.9386 8.76391 30.5708 8.3961C29.4674 7.21911 28.2904 6.04213 26.8192 5.30651C25.1272 4.42377 23.2882 4.64445 21.4492 4.64445C18.6538 4.64445 11.6655 4.64445 7.54602 4.64445L10.3414 8.3961C15.4171 8.3961 23.3618 8.3961 27.0399 8.3961C28.5846 8.3961 29.9088 8.69035 31.1593 9.49952C31.38 9.57309 31.6007 9.57309 31.6742 9.49952Z" fill="#818588"/>
<path d="M34.7638 15.5317C34.396 15.1639 34.0282 14.7961 33.6604 14.4283C32.557 13.2513 31.38 12.0743 29.9088 11.3387C28.2169 10.4559 26.3778 10.6766 24.5388 10.6766C22.1112 10.6766 16.2999 10.6766 12.1804 10.6766L14.9758 14.4283C19.978 14.4283 26.8192 14.4283 30.203 14.4283C31.7478 14.4283 33.0719 14.7225 34.3225 15.5317C34.4696 15.6052 34.6167 15.6052 34.7638 15.5317Z" fill="#818588"/>
<path d="M38.2212 21.4164C37.8534 21.0486 37.4856 20.6808 37.1178 20.313C36.0144 19.136 34.8374 17.959 33.3661 17.2234C31.6742 16.3406 29.8352 16.5613 27.9962 16.5613C25.7157 16.5613 20.7136 16.5613 16.6677 16.5613L19.463 20.313C24.3181 20.313 30.4972 20.313 33.5868 20.313C35.1316 20.313 36.4557 20.6072 37.7063 21.4164C37.927 21.49 38.0741 21.5635 38.2212 21.4164Z" fill="#818588"/>
<path d="M7.25183 31.3472C7.61964 31.715 7.98745 32.0828 8.35526 32.4506C9.45868 33.6276 10.6357 34.8046 12.1069 35.5402C13.7988 36.423 15.6379 36.2023 17.4769 36.2023H31.38L28.5847 32.4506C23.509 32.4506 15.5643 32.4506 11.8862 32.4506C10.3414 32.4506 9.01731 32.1564 7.76676 31.3472C7.54608 31.2737 7.39895 31.2737 7.25183 31.3472Z" fill="#818588"/>
<path d="M4.16217 25.3154C4.52998 25.6832 4.89779 26.051 5.26559 26.4188C6.36902 27.5958 7.546 28.7728 9.01723 29.5084C10.7091 30.3911 12.5482 30.1704 14.3872 30.1704H26.7456L23.9502 26.4188C18.9481 26.4188 12.1068 26.4188 8.72299 26.4188C7.17819 26.4188 5.85408 26.1245 4.60353 25.3154C4.45641 25.2418 4.30929 25.2418 4.16217 25.3154Z" fill="#818588"/>
<path d="M0.77832 19.3567C1.14613 19.7245 1.51394 20.0923 1.88174 20.4601C2.98517 21.6371 4.16216 22.8141 5.63339 23.5497C7.32531 24.4324 9.16434 24.2118 11.0034 24.2118H22.3319L19.5365 20.4601C14.6815 20.4601 8.50229 20.4601 5.4127 20.4601C3.86791 20.4601 2.5438 20.1659 1.29325 19.3567C1.07256 19.2831 0.925444 19.2831 0.77832 19.3567Z" fill="#818588"/>
<path d="M46.6731 11.9205V28.9331H50.414V21.9041H57.5383V18.9972H50.414V15.0657H58.6344V11.9205H46.6731Z" fill="#818588"/>
<path d="M68.0169 21.4514H62.5128C62.5287 21.2131 62.5764 20.9431 62.6558 20.6413C62.7511 20.3394 62.902 20.0535 63.1085 19.7835C63.3309 19.5134 63.6168 19.291 63.9663 19.1163C64.3316 18.9257 64.7844 18.8304 65.3245 18.8304C66.1505 18.8304 66.762 19.0528 67.1592 19.4975C67.5722 19.9423 67.8581 20.5936 68.0169 21.4514ZM62.5128 23.5958H71.4004C71.4639 22.6427 71.3845 21.7294 71.1621 20.8557C70.9397 19.982 70.5744 19.2037 70.0661 18.5206C69.5737 17.8376 68.9383 17.2975 68.1599 16.9004C67.3815 16.4874 66.4682 16.2809 65.4198 16.2809C64.4826 16.2809 63.6248 16.4477 62.8464 16.7812C62.0839 17.1148 61.4247 17.5755 60.8688 18.1632C60.3128 18.7351 59.8839 19.4181 59.5821 20.2124C59.2803 21.0066 59.1294 21.8644 59.1294 22.7857C59.1294 23.7388 59.2723 24.6125 59.5583 25.4067C59.8601 26.201 60.281 26.884 60.8211 27.4559C61.3612 28.0277 62.0204 28.4725 62.7988 28.7902C63.5771 29.092 64.4508 29.2429 65.4198 29.2429C66.8176 29.2429 68.009 28.9252 68.9939 28.2898C69.9787 27.6544 70.7094 26.5981 71.186 25.1208H68.2076C68.0964 25.502 67.7945 25.8674 67.3021 26.2168C66.8097 26.5504 66.2219 26.7172 65.5389 26.7172C64.5858 26.7172 63.8551 26.471 63.3468 25.9786C62.8385 25.4861 62.5605 24.6919 62.5128 23.5958Z" fill="#818588"/>
<path d="M72.5493 20.403C72.597 19.6087 72.7955 18.9495 73.145 18.4253C73.4945 17.9011 73.9393 17.4802 74.4793 17.1625C75.0194 16.8448 75.6231 16.6224 76.2902 16.4953C76.9733 16.3523 77.6563 16.2809 78.3394 16.2809C78.9589 16.2809 79.5863 16.3285 80.2217 16.4238C80.8571 16.5033 81.4369 16.67 81.9611 16.9242C82.4853 17.1784 82.9142 17.5358 83.2478 17.9964C83.5814 18.4412 83.7482 19.0369 83.7482 19.7835V26.193C83.7482 26.749 83.7799 27.2811 83.8435 27.7894C83.907 28.2978 84.0182 28.679 84.177 28.9331H80.7459C80.6824 28.7425 80.6268 28.5519 80.5791 28.3613C80.5474 28.1548 80.5235 27.9483 80.5076 27.7418C79.9676 28.2978 79.3322 28.6869 78.6015 28.9093C77.8708 29.1317 77.1242 29.2429 76.3617 29.2429C75.774 29.2429 75.2259 29.1714 74.7176 29.0285C74.2093 28.8855 73.7645 28.6631 73.3833 28.3613C73.0021 28.0595 72.7002 27.6782 72.4778 27.2176C72.2713 26.7569 72.1681 26.2089 72.1681 25.5735C72.1681 24.8746 72.2872 24.3027 72.5255 23.8579C72.7797 23.3973 73.0974 23.0319 73.4786 22.7619C73.8757 22.4918 74.3205 22.2933 74.8129 22.1662C75.3212 22.0232 75.8296 21.912 76.3379 21.8326C76.8462 21.7532 77.3466 21.6897 77.839 21.642C78.3314 21.5943 78.7683 21.5229 79.1495 21.4276C79.5307 21.3322 79.8325 21.1972 80.0549 21.0225C80.2773 20.8319 80.3806 20.5618 80.3647 20.2124C80.3647 19.847 80.3011 19.5611 80.1741 19.3546C80.0629 19.1322 79.904 18.9654 79.6975 18.8542C79.5069 18.7271 79.2766 18.6477 79.0065 18.6159C78.7524 18.5683 78.4744 18.5445 78.1726 18.5445C77.5054 18.5445 76.9812 18.6874 76.6 18.9733C76.2187 19.2593 75.9963 19.7358 75.9328 20.403H72.5493ZM80.3647 22.9048C80.2217 23.0319 80.039 23.1352 79.8167 23.2146C79.6101 23.2781 79.3798 23.3337 79.1257 23.3814C78.8874 23.429 78.6332 23.4688 78.3632 23.5005C78.0931 23.5323 77.8231 23.572 77.5531 23.6197C77.2989 23.6673 77.0447 23.7309 76.7906 23.8103C76.5523 23.8897 76.3379 24.0009 76.1472 24.1439C75.9725 24.2709 75.8296 24.4377 75.7184 24.6442C75.6072 24.8507 75.5516 25.1128 75.5516 25.4305C75.5516 25.7324 75.6072 25.9865 75.7184 26.193C75.8296 26.3995 75.9805 26.5663 76.1711 26.6934C76.3617 26.8046 76.5841 26.884 76.8382 26.9317C77.0924 26.9793 77.3545 27.0031 77.6245 27.0031C78.2917 27.0031 78.808 26.8919 79.1733 26.6696C79.5387 26.4472 79.8087 26.1851 79.9834 25.8833C80.1582 25.5656 80.2614 25.2479 80.2932 24.9302C80.3409 24.6125 80.3647 24.3583 80.3647 24.1677V22.9048Z" fill="#818588"/>
<path d="M89.9485 16.6144V12.9212H86.565V16.6144H84.5158V18.878H86.565V26.1454C86.565 26.7649 86.6682 27.2652 86.8747 27.6465C87.0812 28.0277 87.3592 28.3216 87.7087 28.5281C88.074 28.7346 88.487 28.8696 88.9477 28.9331C89.4243 29.0126 89.9246 29.0523 90.4488 29.0523C90.7824 29.0523 91.1239 29.0443 91.4734 29.0285C91.8229 29.0126 92.1406 28.9808 92.4265 28.9331V26.3121C92.2676 26.3439 92.1009 26.3677 91.9261 26.3836C91.7514 26.3995 91.5687 26.4075 91.3781 26.4075C90.8062 26.4075 90.425 26.3121 90.2344 26.1215C90.0438 25.9309 89.9485 25.5497 89.9485 24.9778V18.878H92.4265V16.6144H89.9485Z" fill="#818588"/>
<path d="M93.3215 11.9205V28.9331H96.705V22.476C96.705 21.2211 96.9115 20.3236 97.3245 19.7835C97.7375 19.2275 98.4047 18.9495 99.326 18.9495C100.136 18.9495 100.7 19.2037 101.018 19.712C101.335 20.2044 101.494 20.959 101.494 21.9756V28.9331H104.878V21.3561C104.878 20.5936 104.806 19.9026 104.663 19.2831C104.536 18.6477 104.306 18.1156 103.972 17.6867C103.639 17.2419 103.178 16.9004 102.59 16.6621C102.018 16.4079 101.28 16.2809 100.374 16.2809C99.739 16.2809 99.0877 16.4477 98.4205 16.7812C97.7534 17.0989 97.2053 17.6152 96.7765 18.33H96.705V11.9205H93.3215Z" fill="#818588"/>
<path d="M115.023 21.4514H109.519C109.535 21.2131 109.582 20.9431 109.662 20.6413C109.757 20.3394 109.908 20.0535 110.114 19.7835C110.337 19.5134 110.623 19.291 110.972 19.1163C111.337 18.9257 111.79 18.8304 112.33 18.8304C113.156 18.8304 113.768 19.0528 114.165 19.4975C114.578 19.9423 114.864 20.5936 115.023 21.4514ZM109.519 23.5958H118.406C118.47 22.6427 118.39 21.7294 118.168 20.8557C117.946 19.982 117.58 19.2037 117.072 18.5206C116.579 17.8376 115.944 17.2975 115.166 16.9004C114.387 16.4874 113.474 16.2809 112.426 16.2809C111.488 16.2809 110.631 16.4477 109.852 16.7812C109.09 17.1148 108.431 17.5755 107.875 18.1632C107.319 18.7351 106.89 19.4181 106.588 20.2124C106.286 21.0066 106.135 21.8644 106.135 22.7857C106.135 23.7388 106.278 24.6125 106.564 25.4067C106.866 26.201 107.287 26.884 107.827 27.4559C108.367 28.0277 109.026 28.4725 109.805 28.7902C110.583 29.092 111.457 29.2429 112.426 29.2429C113.823 29.2429 115.015 28.9252 116 28.2898C116.985 27.6544 117.715 26.5981 118.192 25.1208H115.213C115.102 25.502 114.8 25.8674 114.308 26.2168C113.816 26.5504 113.228 26.7172 112.545 26.7172C111.592 26.7172 110.861 26.471 110.353 25.9786C109.844 25.4861 109.566 24.6919 109.519 23.5958Z" fill="#818588"/>
<path d="M119.698 16.6144V28.9331H123.082V23.3814C123.082 22.8254 123.137 22.3092 123.248 21.8326C123.36 21.3561 123.542 20.9431 123.796 20.5936C124.066 20.2282 124.416 19.9423 124.845 19.7358C125.274 19.5293 125.798 19.4261 126.417 19.4261C126.624 19.4261 126.838 19.4419 127.061 19.4737C127.283 19.4896 127.474 19.5134 127.633 19.5452V16.4C127.363 16.3206 127.116 16.2809 126.894 16.2809C126.465 16.2809 126.052 16.3444 125.655 16.4715C125.258 16.5986 124.885 16.7812 124.535 17.0195C124.186 17.2419 123.876 17.5199 123.606 17.8535C123.336 18.1712 123.121 18.5206 122.962 18.9019H122.915V16.6144H119.698Z" fill="#818588"/>
<path d="M132.343 25.7879V15.0657H135.011C135.933 15.0657 136.703 15.2007 137.322 15.4707C137.958 15.7249 138.466 16.0982 138.847 16.5906C139.229 17.083 139.499 17.6787 139.658 18.3777C139.832 19.0607 139.92 19.8311 139.92 20.6889C139.92 21.6261 139.801 22.4204 139.562 23.0716C139.324 23.7229 139.006 24.2551 138.609 24.6681C138.212 25.0652 137.759 25.3511 137.251 25.5258C136.743 25.7006 136.218 25.7879 135.678 25.7879H132.343ZM128.602 11.9205V28.9331H135.94C137.243 28.9331 138.371 28.7187 139.324 28.2898C140.293 27.845 141.095 27.2414 141.731 26.4789C142.382 25.7165 142.866 24.811 143.184 23.7626C143.502 22.7142 143.661 21.5705 143.661 20.3315C143.661 18.9177 143.462 17.6867 143.065 16.6383C142.684 15.5899 142.144 14.7162 141.445 14.0173C140.762 13.3183 139.943 12.7941 138.99 12.4447C138.053 12.0952 137.037 11.9205 135.94 11.9205H128.602Z" fill="#818588"/>
<path d="M153.482 21.4514H147.978C147.994 21.2131 148.042 20.9431 148.121 20.6413C148.217 20.3394 148.367 20.0535 148.574 19.7835C148.796 19.5134 149.082 19.291 149.432 19.1163C149.797 18.9257 150.25 18.8304 150.79 18.8304C151.616 18.8304 152.227 19.0528 152.625 19.4975C153.038 19.9423 153.324 20.5936 153.482 21.4514ZM147.978 23.5958H156.866C156.929 22.6427 156.85 21.7294 156.628 20.8557C156.405 19.982 156.04 19.2037 155.532 18.5206C155.039 17.8376 154.404 17.2975 153.625 16.9004C152.847 16.4874 151.934 16.2809 150.885 16.2809C149.948 16.2809 149.09 16.4477 148.312 16.7812C147.549 17.1148 146.89 17.5755 146.334 18.1632C145.778 18.7351 145.349 19.4181 145.048 20.2124C144.746 21.0066 144.595 21.8644 144.595 22.7857C144.595 23.7388 144.738 24.6125 145.024 25.4067C145.326 26.201 145.746 26.884 146.287 27.4559C146.827 28.0277 147.486 28.4725 148.264 28.7902C149.043 29.092 149.916 29.2429 150.885 29.2429C152.283 29.2429 153.474 28.9252 154.459 28.2898C155.444 27.6544 156.175 26.5981 156.651 25.1208H153.673C153.562 25.502 153.26 25.8674 152.768 26.2168C152.275 26.5504 151.687 26.7172 151.004 26.7172C150.051 26.7172 149.321 26.471 148.812 25.9786C148.304 25.4861 148.026 24.6919 147.978 23.5958Z" fill="#818588"/>
<path d="M164.972 28.9331L169.142 16.6144H165.782L163.185 25.0255H163.138L160.54 16.6144H156.99L161.208 28.9331H164.972Z" fill="#818588"/>
</svg>
