<svg width="145" height="41" viewBox="0 0 145 41" fill="none" xmlns="http://www.w3.org/2000/svg">
<path fill-rule="evenodd" clip-rule="evenodd" d="M18.7214 39.1448C29.061 39.1448 37.4429 30.763 37.4429 20.4234C37.4429 10.0838 29.061 1.70197 18.7214 1.70197C8.38185 1.70197 0 10.0838 0 20.4234C0 30.763 8.38185 39.1448 18.7214 39.1448ZM24.5619 10.4232C24.8462 9.41337 23.8662 8.81624 22.9712 9.45386L10.4776 18.3543C9.50694 19.0458 9.65962 20.4234 10.7069 20.4234H13.9968V20.3979H20.4087L15.1842 22.2413L12.881 30.4236C12.5967 31.4335 13.5766 32.0306 14.4717 31.3929L26.9653 22.4926C27.9359 21.8011 27.7832 20.4234 26.736 20.4234H21.7469L24.5619 10.4232Z" fill="#818588"/>
<path d="M47.127 28.8559V25.8945H49.4756V13.9468H47.127V10.9854H56.3175C57.4067 10.9854 58.3513 11.1726 59.1512 11.547C59.9682 11.9045 60.5979 12.4235 61.0404 13.1043C61.4999 13.7681 61.7297 14.568 61.7297 15.5041V15.7594C61.7297 16.5763 61.5765 17.2486 61.2701 17.7762C60.9638 18.2868 60.5979 18.6867 60.1724 18.976C59.7639 19.2484 59.3725 19.4441 58.998 19.5632V20.0227C59.3725 20.1249 59.7809 20.3206 60.2234 20.6099C60.666 20.8822 61.0404 21.2822 61.3467 21.8098C61.6701 22.3374 61.8318 23.0267 61.8318 23.8777V24.133C61.8318 25.1201 61.602 25.9711 61.1425 26.6859C60.683 27.3837 60.0447 27.9198 59.2278 28.2942C58.4279 28.6686 57.4918 28.8559 56.4196 28.8559H47.127ZM52.8455 25.7924H56.0111C56.743 25.7924 57.3301 25.6136 57.7726 25.2562C58.2322 24.8988 58.4619 24.3882 58.4619 23.7245V23.4692C58.4619 22.8054 58.2407 22.2948 57.7982 21.9374C57.3557 21.58 56.76 21.4013 56.0111 21.4013H52.8455V25.7924ZM52.8455 18.3378H55.9601C56.6579 18.3378 57.228 18.1591 57.6705 17.8017C58.13 17.4443 58.3598 16.9507 58.3598 16.321V16.0657C58.3598 15.419 58.1386 14.9254 57.6961 14.585C57.2535 14.2276 56.6749 14.0489 55.9601 14.0489H52.8455V18.3378Z" fill="#818588"/>
<path d="M69.4411 29.2133C68.1816 29.2133 67.0499 28.958 66.0457 28.4474C65.0416 27.9368 64.2501 27.1965 63.6715 26.2263C63.0928 25.2562 62.8035 24.0904 62.8035 22.7288V22.3204C62.8035 20.9588 63.0928 19.793 63.6715 18.8229C64.2501 17.8528 65.0416 17.1124 66.0457 16.6018C67.0499 16.0912 68.1816 15.836 69.4411 15.836C70.7005 15.836 71.8323 16.0912 72.8365 16.6018C73.8406 17.1124 74.632 17.8528 75.2107 18.8229C75.7894 19.793 76.0787 20.9588 76.0787 22.3204V22.7288C76.0787 24.0904 75.7894 25.2562 75.2107 26.2263C74.632 27.1965 73.8406 27.9368 72.8365 28.4474C71.8323 28.958 70.7005 29.2133 69.4411 29.2133ZM69.4411 26.354C70.4282 26.354 71.2452 26.0391 71.8919 25.4094C72.5386 24.7627 72.862 23.8436 72.862 22.6523V22.397C72.862 21.2056 72.5386 20.2951 71.8919 19.6653C71.2622 19.0186 70.4452 18.6952 69.4411 18.6952C68.454 18.6952 67.637 19.0186 66.9903 19.6653C66.3435 20.2951 66.0202 21.2056 66.0202 22.397V22.6523C66.0202 23.8436 66.3435 24.7627 66.9903 25.4094C67.637 26.0391 68.454 26.354 69.4411 26.354Z" fill="#818588"/>
<path d="M77.7714 28.8559V10.9854H80.9881V28.8559H77.7714Z" fill="#818588"/>
<path d="M88.1267 28.8559C87.2927 28.8559 86.612 28.6006 86.0844 28.09C85.5738 27.5624 85.3185 26.8646 85.3185 25.9966V18.8484H82.1528V16.1934H85.3185V12.2619H88.5352V16.1934H92.0071V18.8484H88.5352V25.4349C88.5352 25.9455 88.7734 26.2008 89.25 26.2008H91.7008V28.8559H88.1267Z" fill="#818588"/>
<path d="M98.9014 29.2133C97.2505 29.2133 95.8975 28.8559 94.8423 28.141C93.7871 27.4262 93.1488 26.4051 92.9276 25.0775L95.889 24.3117C96.0081 24.9073 96.2038 25.3754 96.4761 25.7158C96.7655 26.0562 97.1144 26.3029 97.5228 26.4561C97.9483 26.5923 98.4078 26.6603 98.9014 26.6603C99.6503 26.6603 100.203 26.5327 100.561 26.2774C100.918 26.0051 101.097 25.6732 101.097 25.2818C101.097 24.8903 100.927 24.5925 100.586 24.3882C100.246 24.167 99.7013 23.9883 98.9525 23.8521L98.2377 23.7245C97.3526 23.5543 96.5442 23.3245 95.8124 23.0352C95.0805 22.7288 94.4934 22.3119 94.0509 21.7843C93.6084 21.2567 93.3871 20.5759 93.3871 19.7419C93.3871 18.4825 93.8466 17.5209 94.7657 16.8571C95.6847 16.1763 96.8931 15.836 98.3908 15.836C99.8034 15.836 100.978 16.1508 101.914 16.7805C102.85 17.4103 103.463 18.2357 103.752 19.2569L100.765 20.1759C100.629 19.5292 100.348 19.0697 99.9226 18.7973C99.5141 18.525 99.0035 18.3889 98.3908 18.3889C97.7781 18.3889 97.3101 18.4995 96.9867 18.7208C96.6634 18.925 96.5017 19.2143 96.5017 19.5887C96.5017 19.9972 96.6719 20.3036 97.0123 20.5078C97.3526 20.695 97.8122 20.8397 98.3908 20.9418L99.1056 21.0694C100.059 21.2396 100.918 21.4694 101.684 21.7587C102.467 22.031 103.08 22.431 103.522 22.9586C103.982 23.4692 104.212 24.167 104.212 25.052C104.212 26.3795 103.726 27.4092 102.756 28.141C101.803 28.8559 100.518 29.2133 98.9014 29.2133Z" fill="#818588"/>
<path d="M105.754 28.8559V10.9854H108.971V17.7506H109.43C109.566 17.4783 109.779 17.206 110.068 16.9337C110.358 16.6614 110.741 16.4401 111.217 16.2699C111.711 16.0827 112.332 15.9891 113.081 15.9891C114.068 15.9891 114.927 16.2189 115.659 16.6784C116.408 17.1209 116.987 17.7421 117.395 18.5421C117.804 19.3249 118.008 20.244 118.008 21.2992V28.8559H114.791V21.5545C114.791 20.6014 114.553 19.8866 114.076 19.41C113.617 18.9335 112.953 18.6952 112.085 18.6952C111.098 18.6952 110.332 19.0271 109.787 19.6909C109.243 20.3376 108.971 21.2481 108.971 22.4225V28.8559H105.754Z" fill="#818588"/>
<path d="M120.209 28.8559V16.1934H123.425V28.8559H120.209ZM121.817 14.7127C121.238 14.7127 120.745 14.5255 120.336 14.151C119.945 13.7766 119.749 13.283 119.749 12.6703C119.749 12.0576 119.945 11.5641 120.336 11.1896C120.745 10.8152 121.238 10.628 121.817 10.628C122.413 10.628 122.906 10.8152 123.298 11.1896C123.689 11.5641 123.885 12.0576 123.885 12.6703C123.885 13.283 123.689 13.7766 123.298 14.151C122.906 14.5255 122.413 14.7127 121.817 14.7127Z" fill="#818588"/>
<path d="M127.807 28.8559V18.8484H124.59V16.1934H127.807V13.8447C127.807 12.9767 128.062 12.2874 128.573 11.7768C129.1 11.2492 129.781 10.9854 130.615 10.9854H133.934V13.6404H131.738C131.262 13.6404 131.024 13.8957 131.024 14.4063V16.1934H134.342V18.8484H131.024V28.8559H127.807Z" fill="#818588"/>
<path d="M140.157 28.8559C139.323 28.8559 138.643 28.6006 138.115 28.09C137.605 27.5624 137.349 26.8646 137.349 25.9966V18.8484H134.184V16.1934H137.349V12.2619H140.566V16.1934H144.038V18.8484H140.566V25.4349C140.566 25.9455 140.804 26.2008 141.281 26.2008H143.732V28.8559H140.157Z" fill="#818588"/>
</svg>
