<svg width="32" height="32" viewBox="0 0 32 32" fill="none" xmlns="http://www.w3.org/2000/svg">
<rect width="32" height="32" rx="2" fill="white"/>
<path d="M16 3C13.4288 3 10.9154 3.76243 8.7776 5.19089C6.63978 6.61935 4.9735 8.64966 3.98957 11.0251C3.00563 13.4005 2.74819 16.0144 3.2498 18.5362C3.75141 21.058 4.98954 23.3742 6.80761 25.1922C8.62569 27.0103 10.9421 28.2485 13.4638 28.7502C15.9856 29.2518 18.5995 28.9943 20.9749 28.0105C23.3504 27.0264 25.3805 25.3602 26.8091 23.2224C28.2376 21.0846 29 18.5711 29 16C29 12.5522 27.6304 9.24556 25.1924 6.80761C22.7544 4.36963 19.4478 3 16 3ZM23.9856 17.8998C23.9856 18.1598 22.8119 18.197 22.8119 18.457C22.8119 18.717 23.9727 19.0698 23.9727 19.4283C23.9727 19.8665 21.5807 19.9315 21.5807 20.3699C21.5807 20.8379 23.3951 20.6929 23.3951 21.2C23.3951 21.798 18.8377 21.5194 18.8377 22.1415C18.8377 22.3792 19.4209 22.4777 20.1508 22.5557C20.5519 22.6002 20.4645 22.7971 20.2362 22.9272C18.9603 23.7056 17.4946 24.1175 16 24.1175C14.5054 24.1175 13.0397 23.7056 11.7638 22.9272C11.5373 22.7879 11.4481 22.591 11.8493 22.5557C12.5791 22.4777 13.1641 22.37 13.1641 22.1415C13.1641 21.5194 8.60485 21.798 8.60485 21.2C8.60485 20.6929 10.4212 20.8285 10.4212 20.3699C10.4212 19.9315 8.02731 19.8665 8.02731 19.4283C8.02731 19.0698 9.18989 18.7225 9.18989 18.457C9.18989 18.1914 8.0143 18.1617 8.0143 17.8998C8.0143 17.638 8.87232 17.469 8.87232 17.2833C8.87232 16.9323 7.87501 17.5711 7.87501 16C7.87501 13.8451 8.73107 11.7785 10.2548 10.2547C11.7785 8.73101 13.8451 7.87498 16 7.87498C18.1549 7.87498 20.2216 8.73101 21.7453 10.2547C23.269 11.7785 24.1249 13.8451 24.1249 16C24.1249 17.5711 23.1278 16.9285 23.1278 17.2833C23.1278 17.469 23.9856 17.6194 23.9856 17.8998Z" fill="#213035"/>
</svg>
