<svg width="150" height="31" viewBox="0 0 150 31" fill="none" xmlns="http://www.w3.org/2000/svg">
<path d="M46.1513 22.3016C45.1177 22.3016 44.2189 22.1215 43.4549 21.7612C42.7059 21.4008 42.0843 20.9204 41.5899 20.3199C41.0956 19.7043 40.7211 19.0287 40.4665 18.2931C40.2268 17.5574 40.1069 16.8218 40.1069 16.0861V15.6808C40.1069 14.9151 40.2268 14.1644 40.4665 13.4288C40.7211 12.6931 41.0956 12.0325 41.5899 11.447C42.0993 10.8465 42.7284 10.3661 43.4774 10.0057C44.2264 9.64542 45.1027 9.46526 46.1063 9.46526C47.11 9.46526 48.0088 9.65293 48.8027 10.0283C49.6116 10.4036 50.2557 10.9366 50.7351 11.6272C51.2294 12.3028 51.5065 13.106 51.5664 14.0368H49.4992C49.3944 13.2861 49.0499 12.6631 48.4656 12.1677C47.8814 11.6572 47.095 11.402 46.1063 11.402C45.2525 11.402 44.541 11.5971 43.9717 11.9875C43.4025 12.3778 42.9756 12.9108 42.691 13.5864C42.4063 14.262 42.264 15.0277 42.264 15.8834C42.264 16.7092 42.4063 17.4673 42.691 18.158C42.9756 18.8336 43.4025 19.374 43.9717 19.7794C44.5559 20.1697 45.2824 20.3649 46.1513 20.3649C46.8254 20.3649 47.4096 20.2448 47.9039 20.0046C48.3982 19.7644 48.7952 19.4416 49.0948 19.0362C49.3944 18.6309 49.5741 18.173 49.6341 17.6625H51.7013C51.6563 18.6084 51.3792 19.4266 50.8699 20.1172C50.3756 20.8078 49.7165 21.3483 48.8926 21.7386C48.0837 22.114 47.1699 22.3016 46.1513 22.3016Z" fill="#20282D"/>
<path d="M59.0364 22.3016C57.9878 22.3016 57.0665 22.1215 56.2726 21.7612C55.4787 21.4008 54.8046 20.9279 54.2503 20.3424C53.7111 19.7419 53.2991 19.0738 53.0145 18.3381C52.7449 17.6025 52.6101 16.8518 52.6101 16.0861V15.6808C52.6101 14.9151 52.7524 14.1644 53.037 13.4288C53.3216 12.6781 53.741 12.01 54.2953 11.4245C54.8495 10.824 55.5236 10.351 56.3175 10.0057C57.1115 9.64542 58.0177 9.46526 59.0364 9.46526C60.055 9.46526 60.9613 9.64542 61.7552 10.0057C62.5491 10.351 63.2232 10.824 63.7775 11.4245C64.3317 12.01 64.7511 12.6781 65.0357 13.4288C65.3204 14.1644 65.4627 14.9151 65.4627 15.6808V16.0861C65.4627 16.8518 65.3204 17.6025 65.0357 18.3381C64.7661 19.0738 64.3542 19.7419 63.7999 20.3424C63.2606 20.9279 62.594 21.4008 61.8001 21.7612C61.0062 22.1215 60.0849 22.3016 59.0364 22.3016ZM59.0364 20.3649C59.9351 20.3649 60.6991 20.1697 61.3283 19.7794C61.9724 19.374 62.4592 18.8336 62.7888 18.158C63.1333 17.4824 63.3056 16.7242 63.3056 15.8834C63.3056 15.0277 63.1333 14.262 62.7888 13.5864C62.4443 12.9108 61.9499 12.3778 61.3058 11.9875C60.6766 11.5971 59.9202 11.402 59.0364 11.402C58.1675 11.402 57.4111 11.5971 56.7669 11.9875C56.1228 12.3778 55.6285 12.9108 55.2839 13.5864C54.9394 14.262 54.7671 15.0277 54.7671 15.8834C54.7671 16.7242 54.9319 17.4824 55.2615 18.158C55.606 18.8336 56.0928 19.374 56.722 19.7794C57.3661 20.1697 58.1376 20.3649 59.0364 20.3649Z" fill="#20282D"/>
<path d="M67.5699 21.8963V9.87062H69.2776V15.0277H69.008C69.008 13.8416 69.1652 12.8433 69.4798 12.0325C69.8094 11.2068 70.3037 10.5838 70.9628 10.1634C71.6219 9.72799 72.4533 9.5103 73.4569 9.5103H73.5468C75.0598 9.5103 76.1758 9.98322 76.8948 10.9291C77.6288 11.8749 77.9958 13.2411 77.9958 15.0277V21.8963H75.8387V14.5773C75.8387 13.6465 75.5766 12.9033 75.0523 12.3478C74.528 11.7773 73.809 11.4921 72.8952 11.4921C71.9515 11.4921 71.1875 11.7848 70.6033 12.3703C70.0191 12.9559 69.727 13.7365 69.727 14.7124V21.8963H67.5699Z" fill="#20282D"/>
<path d="M84.7512 22.2566C83.1784 22.2566 81.9575 21.9188 81.0887 21.2432C80.2349 20.5676 79.7929 19.6443 79.763 18.4732H81.7853C81.8152 18.9387 82.0474 19.3815 82.4818 19.8019C82.9312 20.2073 83.6877 20.41 84.7512 20.41C85.7099 20.41 86.444 20.2223 86.9533 19.847C87.4626 19.4566 87.7172 18.9837 87.7172 18.4282C87.7172 17.9328 87.53 17.5499 87.1555 17.2797C86.781 16.9944 86.1743 16.8068 85.3355 16.7167L84.0322 16.5816C82.8938 16.4615 81.965 16.1237 81.246 15.5682C80.527 14.9977 80.1674 14.202 80.1674 13.1811C80.1674 12.4154 80.3622 11.7623 80.7517 11.2218C81.1411 10.6663 81.6804 10.246 82.3695 9.9607C83.0585 9.66043 83.8525 9.5103 84.7512 9.5103C86.0994 9.5103 87.1929 9.81057 88.0318 10.4111C88.8707 11.0116 89.3051 11.9049 89.335 13.091H87.3128C87.2978 12.6105 87.0731 12.2052 86.6387 11.8749C86.2193 11.5296 85.5901 11.3569 84.7512 11.3569C83.9124 11.3569 83.2757 11.5296 82.8413 11.8749C82.4069 12.2202 82.1897 12.6556 82.1897 13.1811C82.1897 13.6314 82.3395 13.9918 82.6391 14.262C82.9537 14.5322 83.463 14.7049 84.167 14.78L85.4703 14.9151C86.7585 15.0502 87.7921 15.4105 88.5711 15.996C89.35 16.5665 89.7395 17.3773 89.7395 18.4282C89.7395 19.1789 89.5223 19.847 89.0879 20.4325C88.6684 21.003 88.0842 21.4534 87.3352 21.7837C86.5863 22.0989 85.7249 22.2566 84.7512 22.2566Z" fill="#20282D"/>
<path d="M95.8992 22.2566C94.4761 22.2566 93.3826 21.7912 92.6186 20.8604C91.8546 19.9295 91.4726 18.5858 91.4726 16.8293V9.8481H93.6297V17.2572C93.6297 18.203 93.8844 18.9462 94.3937 19.4866C94.903 20.0121 95.5921 20.2748 96.4609 20.2748C97.3597 20.2748 98.0937 19.9896 98.6629 19.4191C99.2321 18.8336 99.5168 18.0379 99.5168 17.032V9.8481H101.674V21.8963H99.9662V16.7392H100.236C100.236 17.9253 100.079 18.9311 99.7639 19.7569C99.4494 20.5676 98.9775 21.1906 98.3483 21.626C97.7342 22.0464 96.9477 22.2566 95.989 22.2566H95.8992Z" fill="#20282D"/>
<path d="M104.863 21.8963V5.45671H107.02V21.8963H104.863ZM103.2 7.16823V5.45671H107.02V7.16823H103.2Z" fill="#20282D"/>
<path d="M114.708 22.0314C113.809 22.0314 113.03 21.9038 112.371 21.6486C111.727 21.3933 111.225 20.9579 110.865 20.3424C110.521 19.7118 110.349 18.8636 110.349 17.7976V6.22239H112.416V18.0679C112.416 18.7135 112.588 19.2164 112.933 19.5767C113.292 19.922 113.794 20.0947 114.438 20.0947H116.55V22.0314H114.708ZM108.281 11.4921V9.87062H116.55V11.4921H108.281Z" fill="#20282D"/>
<path d="M125.691 21.8963V18.2931H125.332V14.1269C125.332 13.3012 125.115 12.6781 124.68 12.2577C124.261 11.8374 123.639 11.6272 122.815 11.6272C122.351 11.6272 121.872 11.6347 121.377 11.6497C120.883 11.6647 120.411 11.6797 119.962 11.6947C119.512 11.7097 119.123 11.7323 118.793 11.7623V9.87062C119.123 9.84059 119.467 9.81807 119.827 9.80306C120.201 9.77303 120.583 9.75802 120.973 9.75802C121.362 9.74301 121.737 9.7355 122.096 9.7355C123.325 9.7355 124.328 9.88563 125.107 10.1859C125.886 10.4712 126.463 10.9441 126.837 11.6047C127.212 12.2652 127.399 13.1585 127.399 14.2845V21.8963H125.691ZM121.759 22.2115C120.86 22.2115 120.081 22.0614 119.422 21.7612C118.778 21.4459 118.276 20.9955 117.917 20.41C117.572 19.8244 117.4 19.1188 117.4 18.2931C117.4 17.4373 117.587 16.7242 117.962 16.1537C118.351 15.5832 118.913 15.1553 119.647 14.87C120.381 14.5698 121.265 14.4196 122.298 14.4196H125.557V16.0411H122.209C121.34 16.0411 120.673 16.2513 120.209 16.6716C119.744 17.092 119.512 17.6325 119.512 18.2931C119.512 18.9537 119.744 19.4866 120.209 19.892C120.673 20.2974 121.34 20.5 122.209 20.5C122.718 20.5 123.205 20.41 123.669 20.2298C124.133 20.0346 124.515 19.7193 124.815 19.284C125.13 18.8336 125.302 18.218 125.332 17.4373L125.916 18.2931C125.841 19.1488 125.631 19.8695 125.287 20.455C124.957 21.0255 124.493 21.4609 123.894 21.7612C123.31 22.0614 122.598 22.2115 121.759 22.2115Z" fill="#20282D"/>
<path d="M130.235 21.8963V9.87062H131.942V15.0277H131.673C131.673 13.8416 131.83 12.8433 132.145 12.0325C132.474 11.2068 132.968 10.5838 133.628 10.1634C134.287 9.72799 135.118 9.5103 136.122 9.5103H136.212C137.725 9.5103 138.841 9.98322 139.56 10.9291C140.294 11.8749 140.661 13.2411 140.661 15.0277V21.8963H138.503V14.5773C138.503 13.6465 138.241 12.9033 137.717 12.3478C137.193 11.7773 136.474 11.4921 135.56 11.4921C134.616 11.4921 133.852 11.7848 133.268 12.3703C132.684 12.9559 132.392 13.7365 132.392 14.7124V21.8963H130.235Z" fill="#20282D"/>
<path d="M148.157 22.0314C147.259 22.0314 146.48 21.9038 145.821 21.6486C145.177 21.3933 144.675 20.9579 144.315 20.3424C143.971 19.7118 143.798 18.8636 143.798 17.7976V6.22239H145.866V18.0679C145.866 18.7135 146.038 19.2164 146.382 19.5767C146.742 19.922 147.244 20.0947 147.888 20.0947H150V22.0314H148.157ZM141.731 11.4921V9.87062H150V11.4921H141.731Z" fill="#20282D"/>
<path d="M14.8408 0.643875C11.9056 0.643875 9.03626 1.51026 6.5957 3.13348C4.15517 4.75669 2.25295 7.06382 1.12969 9.76314C0.0064297 12.4624 -0.287466 15.4327 0.285167 18.2983C0.857804 21.1639 2.27126 23.796 4.34677 25.8618C6.42229 27.9278 9.0667 29.3348 11.9455 29.9049C14.8244 30.4749 17.8083 30.1823 20.5202 29.0644C23.232 27.9461 25.5496 26.0527 27.1805 23.6234C28.8112 21.1941 29.6816 18.338 29.6816 15.4163C29.6816 11.4984 28.1181 7.74097 25.3348 4.97062C22.5516 2.20025 18.7768 0.643875 14.8408 0.643875ZM23.9572 17.5752C23.9572 17.8706 22.6173 17.9128 22.6173 18.2083C22.6173 18.5037 23.9425 18.9047 23.9425 19.3121C23.9425 19.81 21.2117 19.8838 21.2117 20.382C21.2117 20.9138 23.283 20.7491 23.283 21.3253C23.283 22.0048 18.0803 21.6882 18.0803 22.3952C18.0803 22.6653 18.7461 22.7772 19.5793 22.8659C20.0372 22.9164 19.9375 23.1401 19.6769 23.288C18.2203 24.1725 16.5471 24.6406 14.8408 24.6406C13.1346 24.6406 11.4613 24.1725 10.0048 23.288C9.74615 23.1297 9.64439 22.906 10.1023 22.8659C10.9355 22.7772 11.6034 22.6548 11.6034 22.3952C11.6034 21.6882 6.39849 22.0048 6.39849 21.3253C6.39849 20.7491 8.47199 20.9032 8.47199 20.382C8.47199 19.8838 5.73918 19.81 5.73918 19.3121C5.73918 18.9047 7.06638 18.5101 7.06638 18.2083C7.06638 17.9065 5.72433 17.8727 5.72433 17.5752C5.72433 17.2776 6.70383 17.0856 6.70383 16.8745C6.70383 16.4757 5.5653 17.2017 5.5653 15.4163C5.5653 12.9676 6.54259 10.6192 8.28207 8.88775C10.0216 7.15627 12.3808 6.18352 14.8408 6.18352C17.3008 6.18352 19.6601 7.15627 21.3996 8.88775C23.1391 10.6192 24.1162 12.9676 24.1162 15.4163C24.1162 17.2017 22.9778 16.4715 22.9778 16.8745C22.9778 17.0856 23.9572 17.2565 23.9572 17.5752Z" fill="#213035"/>
</svg>
