<svg width="143" height="41" viewBox="0 0 143 41" fill="none" xmlns="http://www.w3.org/2000/svg">
<path fill-rule="evenodd" clip-rule="evenodd" d="M17.4854 2.93409C17.0557 2.8457 16.6124 2.8457 16.1826 2.93409C15.6858 3.03627 15.2418 3.28497 14.8888 3.4827L14.7926 3.53645L2.8283 10.1833C2.79523 10.2016 2.76114 10.2204 2.72622 10.2396C2.35253 10.4455 1.88266 10.7043 1.52184 11.0958C1.20987 11.4343 0.973789 11.8356 0.82937 12.2727C0.662328 12.7783 0.664282 13.3147 0.665836 13.7413C0.665982 13.7812 0.666123 13.8201 0.666123 13.8579V26.9816C0.666123 27.0194 0.665982 27.0583 0.665836 27.0982C0.664282 27.5248 0.662328 28.0613 0.82937 28.5668C0.97379 29.0039 1.20988 29.4052 1.52184 29.7437C1.88266 30.1352 2.35253 30.394 2.72622 30.5999C2.76114 30.6191 2.79523 30.6379 2.82831 30.6562L14.7926 37.3031L14.8888 37.3568C15.2418 37.5545 15.6858 37.8032 16.1826 37.9054C16.6124 37.9938 17.0557 37.9938 17.4854 37.9054C17.9822 37.8032 18.4263 37.5545 18.7793 37.3568L18.8755 37.3031L30.8398 30.6562C30.8544 30.6481 30.8692 30.6399 30.8842 30.6316C30.9031 30.6212 30.9224 30.6106 30.9418 30.5999C31.3155 30.394 31.7854 30.1352 32.1462 29.7437C32.4582 29.4052 32.6943 29.0039 32.8387 28.5668C33.0057 28.0612 33.0038 27.5248 33.0022 27.0982C33.0021 27.0583 33.0019 27.0194 33.0019 26.9816V13.8579C33.0019 13.8201 33.0021 13.7812 33.0022 13.7413C33.0038 13.3147 33.0057 12.7783 32.8387 12.2727C32.6943 11.8356 32.4582 11.4343 32.1462 11.0958C31.7854 10.7043 31.3155 10.4455 30.9418 10.2396L30.9405 10.2389C30.9061 10.2199 30.8724 10.2014 30.8398 10.1833L18.8755 3.53645L18.7793 3.48269C18.4263 3.28497 17.9822 3.03627 17.4854 2.93409ZM16.3629 6.36311C16.6079 6.22699 16.733 6.15821 16.8263 6.11321L16.834 6.10951L16.8418 6.11321C16.9351 6.15821 17.0601 6.22699 17.3051 6.36311L28.0559 12.3358L16.834 18.5702L5.61211 12.3358L16.3629 6.36311ZM3.89971 15.0835L15.2172 21.371L15.2172 33.8399L4.39867 27.8296C4.14006 27.6859 4.00803 27.6118 3.91539 27.5528L3.90757 27.5478L3.90698 27.5385C3.90038 27.4288 3.89971 27.2774 3.89971 26.9816V15.0835Z" fill="#818588"/>
<path d="M47.7168 25.823H52.8635V28.8559H43.7878V12.7265H47.7168V25.823Z" fill="#818588"/>
<path d="M56.4837 14.7025C55.7944 14.7025 55.2276 14.5033 54.7834 14.1051C54.3545 13.6915 54.1401 13.186 54.1401 12.5886C54.1401 11.9759 54.3545 11.4705 54.7834 11.0722C55.2276 10.6586 55.7944 10.4518 56.4837 10.4518C57.1577 10.4518 57.7091 10.6586 58.138 11.0722C58.5822 11.4705 58.8043 11.9759 58.8043 12.5886C58.8043 13.186 58.5822 13.6915 58.138 14.1051C57.7091 14.5033 57.1577 14.7025 56.4837 14.7025ZM58.4367 16.0351V28.8559H54.5077V16.0351H58.4367Z" fill="#818588"/>
<path d="M65.9251 15.8513C66.8289 15.8513 67.6177 16.0351 68.2917 16.4027C68.981 16.7703 69.5095 17.2528 69.8771 17.8502V16.0351H73.806V28.8329C73.806 30.0123 73.5686 31.0769 73.0938 32.0266C72.6342 32.9916 71.922 33.7575 70.957 34.3242C70.0073 34.891 68.8202 35.1743 67.3956 35.1743C65.4963 35.1743 63.9568 34.7225 62.7774 33.8187C61.5979 32.9303 60.924 31.7202 60.7555 30.1885H64.6385C64.761 30.6786 65.052 31.0616 65.5116 31.3373C65.9711 31.6283 66.5378 31.7739 67.2118 31.7739C68.0237 31.7739 68.667 31.5364 69.1418 31.0616C69.632 30.6021 69.8771 29.8592 69.8771 28.8329V27.0178C69.4941 27.6151 68.9657 28.1053 68.2917 28.4882C67.6177 28.8559 66.8289 29.0397 65.9251 29.0397C64.8682 29.0397 63.9109 28.7716 63.0531 28.2355C62.1953 27.6841 61.5137 26.9105 61.0082 25.9149C60.5181 24.9039 60.273 23.7398 60.273 22.4225C60.273 21.1052 60.5181 19.9487 61.0082 18.9531C61.5137 17.9574 62.1953 17.1916 63.0531 16.6554C63.9109 16.1193 64.8682 15.8513 65.9251 15.8513ZM69.8771 22.4455C69.8771 21.4652 69.6014 20.6916 69.0499 20.1249C68.5138 19.5581 67.8552 19.2747 67.074 19.2747C66.2928 19.2747 65.6265 19.5581 65.075 20.1249C64.5389 20.6763 64.2709 21.4422 64.2709 22.4225C64.2709 23.4028 64.5389 24.184 65.075 24.7661C65.6265 25.3328 66.2928 25.6162 67.074 25.6162C67.8552 25.6162 68.5138 25.3328 69.0499 24.7661C69.6014 24.1993 69.8771 23.4258 69.8771 22.4455Z" fill="#818588"/>
<path d="M84.2995 15.8972C85.77 15.8972 86.9495 16.3874 87.8379 17.3677C88.7263 18.3327 89.1705 19.6653 89.1705 21.3656V28.8559H85.2646V21.894C85.2646 21.0363 85.0424 20.3699 84.5982 19.8951C84.154 19.4203 83.5566 19.1828 82.8061 19.1828C82.0555 19.1828 81.4581 19.4203 81.0139 19.8951C80.5697 20.3699 80.3476 21.0363 80.3476 21.894V28.8559H76.4187V11.8534H80.3476V17.7583C80.7459 17.1916 81.2897 16.7397 81.9789 16.4027C82.6682 16.0657 83.4418 15.8972 84.2995 15.8972Z" fill="#818588"/>
<path d="M98.8166 25.5243V28.8559H96.8177C95.3932 28.8559 94.2826 28.5112 93.4861 27.8219C92.6896 27.1173 92.2914 25.9762 92.2914 24.3985V19.2977H90.729V16.0351H92.2914V12.9103H96.2203V16.0351H98.7936V19.2977H96.2203V24.4444C96.2203 24.8274 96.3122 25.1031 96.496 25.2716C96.6798 25.4401 96.9862 25.5243 97.4151 25.5243H98.8166Z" fill="#818588"/>
<path d="M104.704 17.8502C105.072 17.2528 105.6 16.7703 106.29 16.4027C106.979 16.0351 107.768 15.8513 108.656 15.8513C109.713 15.8513 110.67 16.1193 111.528 16.6554C112.386 17.1916 113.06 17.9574 113.55 18.9531C114.056 19.9487 114.308 21.1052 114.308 22.4225C114.308 23.7398 114.056 24.9039 113.55 25.9149C113.06 26.9105 112.386 27.6841 111.528 28.2355C110.67 28.7716 109.713 29.0397 108.656 29.0397C107.752 29.0397 106.964 28.8635 106.29 28.5112C105.616 28.1436 105.087 27.6611 104.704 27.0637V28.8559H100.775V11.8534H104.704V17.8502ZM110.311 22.4225C110.311 21.4422 110.035 20.6763 109.483 20.1249C108.947 19.5581 108.281 19.2747 107.484 19.2747C106.703 19.2747 106.037 19.5581 105.485 20.1249C104.949 20.6916 104.681 21.4652 104.681 22.4455C104.681 23.4258 104.949 24.1993 105.485 24.7661C106.037 25.3328 106.703 25.6162 107.484 25.6162C108.266 25.6162 108.932 25.3328 109.483 24.7661C110.035 24.184 110.311 23.4028 110.311 22.4225Z" fill="#818588"/>
<path d="M121.976 29.0397C120.72 29.0397 119.586 28.7716 118.575 28.2355C117.58 27.6994 116.791 26.9335 116.209 25.9379C115.642 24.9422 115.359 23.7781 115.359 22.4455C115.359 21.1282 115.65 19.9717 116.232 18.9761C116.814 17.9651 117.61 17.1916 118.621 16.6554C119.632 16.1193 120.766 15.8513 122.022 15.8513C123.278 15.8513 124.411 16.1193 125.422 16.6554C126.433 17.1916 127.23 17.9651 127.812 18.9761C128.394 19.9717 128.685 21.1282 128.685 22.4455C128.685 23.7628 128.386 24.9269 127.789 25.9379C127.207 26.9335 126.403 27.6994 125.376 28.2355C124.365 28.7716 123.232 29.0397 121.976 29.0397ZM121.976 25.6392C122.726 25.6392 123.362 25.3635 123.883 24.812C124.419 24.2606 124.687 23.4718 124.687 22.4455C124.687 21.4192 124.427 20.6303 123.906 20.0789C123.4 19.5275 122.772 19.2518 122.022 19.2518C121.256 19.2518 120.62 19.5275 120.115 20.0789C119.609 20.615 119.357 21.4039 119.357 22.4455C119.357 23.4718 119.602 24.2606 120.092 24.812C120.597 25.3635 121.225 25.6392 121.976 25.6392Z" fill="#818588"/>
<path d="M138.122 28.8559L135.663 25.2945L133.595 28.8559H129.345L133.572 22.3076L129.23 16.0351H133.641L136.1 19.5734L138.168 16.0351H142.418L138.122 22.4914L142.533 28.8559H138.122Z" fill="#818588"/>
</svg>
